<?xml version="1.0" encoding="utf-8"?>
<!-- Generator: Adobe Illustrator 23.0.0, SVG Export Plug-In . SVG Version: 6.00 Build 0)  -->
<svg version="1.1" xmlns="http://www.w3.org/2000/svg" xmlns:xlink="http://www.w3.org/1999/xlink" x="0px" y="0px"
	 viewBox="0 0 1000 1000" style="enable-background:new 0 0 1000 1000;" xml:space="preserve">
<style type="text/css">
	.st0{fill:#FFFFFF;}
</style>
<g id="Layer_2">
	<rect width="1000" height="1000"/>
</g>
<g id="Layer_1">
	<path class="st0" d="M291.4,425.3c-2.4-6-6-11.7-12.1-16.9c-8.4-6.8-17.3-9.6-28.9-9.6c-24.9,0-37.8,14.9-37.8,32.1
		c0,8,2.8,22.1,28.9,32.6l26.9,10.9c49.4,20.1,63.1,48.2,63.1,78.8c0,51-36.2,86-86.4,86c-30.9,0-49.4-11.7-63.1-26.9
		c-14.5-16.1-20.9-33.8-22.5-52.2l40.6-8.8c0,13.3,4.8,25.7,11.3,34.2c7.6,9.6,18.9,16.1,35,16.1c24.9,0,44.2-18.1,44.2-45
		c0-27.3-20.9-38.6-38.6-45.8l-25.7-10.9c-22.1-9.2-54.7-27.7-54.7-67.9c0-36.2,28.1-70.7,78.4-70.7c28.9,0,45.4,10.9,53.8,18.1
		c7.2,6.4,14.9,15.7,20.5,26.9L291.4,425.3z"/>
	<path class="st0" d="M439.3,365.8c37.4,0,69.9,4,99.7,26.1c32.6,24.5,51.4,63.5,51.4,108.1c0,44.6-18.5,83.2-53.8,108.1
		c-31.3,22.1-60.7,25.7-98.1,25.7h-55.5v-268H439.3z M424,595.2h17.7c20.1,0,47.8-1.6,71.1-18.9c18.5-14.1,36.6-39.8,36.6-76.4
		c0-35.4-16.9-63.1-36.2-77.2c-23.3-16.9-51.8-18.5-71.5-18.5H424V595.2z"/>
	<path class="st0" d="M840.4,428.5c-29.7-26.9-57.5-29.7-72.7-29.7c-58.3,0-97.7,43-97.7,102.1c0,56.7,41,100.5,98.1,100.5
		c32.1,0,57.1-16.5,72.3-30.9V619C813.4,635,785.3,639,766.8,639c-48.6,0-79.2-22.1-94.8-37c-31.3-29.3-43-63.5-43-101.3
		c0-49.4,20.5-83.6,43-104.9c27.7-26.1,59.9-35,96.8-35c24.5,0,48.2,4.4,71.5,19.3V428.5z"/>
</g>
</svg>
